<?xml version="1.0" ?><svg height="564.44446mm" id="svg2" version="1.1" viewBox="0 0 2000 2000" width="564.44446mm" xmlns="http://www.w3.org/2000/svg" xmlns:cc="http://creativecommons.org/ns#" xmlns:dc="http://purl.org/dc/elements/1.1/" xmlns:inkscape="http://www.inkscape.org/namespaces/inkscape" xmlns:rdf="http://www.w3.org/1999/02/22-rdf-syntax-ns#" xmlns:sodipodi="http://sodipodi.sourceforge.net/DTD/sodipodi-0.dtd" xmlns:svg="http://www.w3.org/2000/svg"><defs id="defs4"/><g id="layer1" transform="translate(9790.998,5341.915)"><g id="g4628" transform="matrix(1.1313322,0,0,1.1313322,-8383.1542,-13934.685)"><path d="m 4811.4258,4292.9141 c -198.1353,0 -388.2058,78.7311 -528.3086,218.8339 -140.1028,140.1028 -218.8319,330.1734 -218.832,528.3086 a 50.005,50.005 0 0 0 0,0.065 c 0.1661,130.5766 34.5597,258.6807 99.5273,371.6113 l -130.4238,335.9434 a 50.005,50.005 0 0 0 60.9375,66 l 372.0527,-111.2696 c 106.4227,55.5347 224.7546,84.692 345.0059,84.793 a 50.005,50.005 0 0 0 0.043,0 c 198.1353,-1e-4 388.2058,-78.7292 528.3086,-218.832 140.1028,-140.1028 218.8359,-330.1753 218.836,-528.3106 -1e-4,-198.1353 -78.7332,-388.2058 -218.836,-528.3086 -140.1028,-140.1033 -330.1733,-218.8339 -528.3086,-218.8339 z m 0,100 0,0 c 171.6513,5e-4 336.2218,68.169 457.5976,189.5449 121.3764,121.3763 189.5449,285.9456 189.545,457.5976 -1e-4,171.6521 -68.1686,336.2234 -189.545,457.5996 -121.3722,121.3722 -285.9363,189.5383 -457.582,189.543 -110.3618,-0.097 -218.8583,-28.4126 -315.1914,-82.2617 a 50.005,50.005 0 0 0 -38.7246,-4.2598 l -293.9258,87.9043 102.2676,-263.4199 a 50.005,50.005 0 0 0 -4.1387,-44.4805 c -63.5421,-102.2773 -97.2876,-220.2441 -97.4472,-340.6523 0.01,-171.6422 68.1731,-336.2005 189.5429,-457.5703 121.3759,-121.3759 285.9463,-189.5443 457.5977,-189.5449 z m -353.9942,337.2695 c -27.6131,0 -49.9972,22.3869 -50,50 l 0,502.8574 c 0,27.6131 22.3869,49.9972 50,50 l 691.4297,0 c 27.6131,0 49.9972,-22.3869 50,-50 l 0,-502.8574 c 0,-27.6131 -22.3869,-49.9973 -50,-50 l -103.5234,0 c -27.8908,-0.3945 -50.7129,22.1064 -50.7129,50 0,27.8935 22.8221,50.3944 50.7129,50 l 53.5234,0 0,48.1191 c -1.6466,0.6908 -3.255,1.4693 -4.8183,2.3321 l -285.8672,156.6269 -300.7442,-162.6777 0,-44.4004 364.1602,0 c 27.8908,0.3944 50.7129,-22.1065 50.7129,-50 0,-27.8936 -22.8221,-50.3945 -50.7129,-50 l -414.1602,0 z m 50,258.0937 277.1075,149.8907 c 14.9274,8.0735 32.9308,8.025 47.8144,-0.1289 l 266.5078,-146.0176 0,241.0195 -591.4297,0 0,-244.7637 z" id="path4186" style="color:#000000;font-style:normal;font-variant:normal;font-weight:normal;font-stretch:normal;font-size:medium;line-height:normal;font-family:sans-serif;text-indent:0;text-align:start;text-decoration:none;text-decoration-line:none;text-decoration-style:solid;text-decoration-color:#000000;letter-spacing:normal;word-spacing:normal;text-transform:none;direction:ltr;block-progression:tb;writing-mode:lr-tb;baseline-shift:baseline;text-anchor:start;white-space:normal;clip-rule:nonzero;display:inline;overflow:visible;visibility:visible;opacity:1;isolation:auto;mix-blend-mode:normal;color-interpolation:sRGB;color-interpolation-filters:linearRGB;solid-color:#000000;solid-opacity:1;fill:#6c6da7;fill-opacity:1;fill-rule:nonzero;stroke:none;stroke-width:100;stroke-linecap:round;stroke-linejoin:round;stroke-miterlimit:4;stroke-dasharray:none;stroke-dashoffset:0;stroke-opacity:1;color-rendering:auto;image-rendering:auto;shape-rendering:auto;text-rendering:auto;enable-background:accumulate" transform="translate(-5154.7861,3424.8384)"/><path d="m -232.8621,8210.7347 a 50.005,50.005 0 0 1 -50.3321,44.2871 l -364.1601,0 0,44.4004 300.7441,162.6777 285.8672,-156.627 a 50.005,50.005 0 0 1 4.8184,-2.332 l 0,-48.1191 -53.5235,0 a 50.005,50.005 0 0 1 -50.3828,-44.2871 l -73.0312,0 z" id="path4620" style="fill:#00bafd;fill-opacity:1;fill-rule:evenodd;stroke:none;stroke-width:1px;stroke-linecap:butt;stroke-linejoin:miter;stroke-opacity:1"/></g></g></svg>